# xmcd CD database file
#
# Track frame offsets:
#	150
#	18530
#	34615
#
# Disc length: 701 seconds
#
# Revision: 1
# Processed by: cddbd v1.5PL3 Copyright (c) Steve Scherf et al.
# Submitted via: CDex 1.50Beta7
#
DISCID=1a02bb03
DTITLE=松たか子 - I STAND ALONE
DYEAR=1997
DGENRE=JPop
TTITLE0=I STAND ALONE
TTITLE1=lovesick
TTITLE2=I STAND ALONE (original karaoke)
EXTD=YEAR: 1997/05/21
EXTT0=
EXTT1=
EXTT2=
PLAYORDER=
